<mxfile host="app.diagrams.net" modified="2022-03-26T03:06:39.694Z" agent="5.0 (Windows NT 10.0; Win64; x64) AppleWebKit/537.36 (KHTML, like Gecko) Chrome/99.0.4844.74 Safari/537.36 Edg/99.0.1150.46" etag="gtRUDsiG8jxtIx2N9hJN" version="17.2.1" type="github">
  <diagram id="ZnbQmSVnIm6AGv-PRIfz" name="TCP/IP体系结构">
    <mxGraphModel dx="1236" dy="654" grid="1" gridSize="10" guides="1" tooltips="1" connect="1" arrows="1" fold="1" page="1" pageScale="1" pageWidth="827" pageHeight="1169" math="0" shadow="0">
      <root>
        <mxCell id="0" />
        <mxCell id="1" parent="0" />
        <mxCell id="wwR4H8JDuJIurhsovBEl-1" value="" style="endArrow=none;dashed=1;html=1;rounded=0;" edge="1" parent="1">
          <mxGeometry width="50" height="50" relative="1" as="geometry">
            <mxPoint x="160" y="120" as="sourcePoint" />
            <mxPoint x="640" y="120" as="targetPoint" />
          </mxGeometry>
        </mxCell>
        <mxCell id="wwR4H8JDuJIurhsovBEl-2" value="" style="endArrow=none;dashed=1;html=1;rounded=0;" edge="1" parent="1">
          <mxGeometry width="50" height="50" relative="1" as="geometry">
            <mxPoint x="160" y="200" as="sourcePoint" />
            <mxPoint x="640" y="200" as="targetPoint" />
          </mxGeometry>
        </mxCell>
        <mxCell id="wwR4H8JDuJIurhsovBEl-3" value="" style="endArrow=none;dashed=1;html=1;rounded=0;" edge="1" parent="1">
          <mxGeometry width="50" height="50" relative="1" as="geometry">
            <mxPoint x="160" y="280" as="sourcePoint" />
            <mxPoint x="640" y="280" as="targetPoint" />
          </mxGeometry>
        </mxCell>
        <mxCell id="wwR4H8JDuJIurhsovBEl-4" value="" style="endArrow=none;dashed=1;html=1;rounded=0;" edge="1" parent="1">
          <mxGeometry width="50" height="50" relative="1" as="geometry">
            <mxPoint x="160" y="360" as="sourcePoint" />
            <mxPoint x="640" y="360" as="targetPoint" />
          </mxGeometry>
        </mxCell>
        <mxCell id="wwR4H8JDuJIurhsovBEl-5" value="应用层" style="text;html=1;align=center;verticalAlign=middle;resizable=0;points=[];autosize=1;strokeColor=none;fillColor=none;" vertex="1" parent="1">
          <mxGeometry x="90" y="70" width="50" height="20" as="geometry" />
        </mxCell>
        <mxCell id="wwR4H8JDuJIurhsovBEl-6" value="传输层" style="text;html=1;align=center;verticalAlign=middle;resizable=0;points=[];autosize=1;strokeColor=none;fillColor=none;" vertex="1" parent="1">
          <mxGeometry x="90" y="150" width="50" height="20" as="geometry" />
        </mxCell>
        <mxCell id="wwR4H8JDuJIurhsovBEl-7" value="网络层" style="text;html=1;align=center;verticalAlign=middle;resizable=0;points=[];autosize=1;strokeColor=none;fillColor=none;" vertex="1" parent="1">
          <mxGeometry x="90" y="230" width="50" height="20" as="geometry" />
        </mxCell>
        <mxCell id="wwR4H8JDuJIurhsovBEl-8" value="数据链路层" style="text;html=1;align=center;verticalAlign=middle;resizable=0;points=[];autosize=1;strokeColor=none;fillColor=none;" vertex="1" parent="1">
          <mxGeometry x="75" y="310" width="80" height="20" as="geometry" />
        </mxCell>
        <mxCell id="wwR4H8JDuJIurhsovBEl-10" value="ARP" style="rounded=1;whiteSpace=wrap;html=1;" vertex="1" parent="1">
          <mxGeometry x="300" y="300" width="90" height="40" as="geometry" />
        </mxCell>
        <mxCell id="wwR4H8JDuJIurhsovBEl-11" value="RARP" style="rounded=1;whiteSpace=wrap;html=1;" vertex="1" parent="1">
          <mxGeometry x="530" y="300" width="90" height="40" as="geometry" />
        </mxCell>
        <mxCell id="wwR4H8JDuJIurhsovBEl-22" style="edgeStyle=none;shape=link;rounded=0;orthogonalLoop=1;jettySize=auto;html=1;exitX=0.5;exitY=0;exitDx=0;exitDy=0;entryX=0.5;entryY=1;entryDx=0;entryDy=0;" edge="1" parent="1" source="wwR4H8JDuJIurhsovBEl-12" target="wwR4H8JDuJIurhsovBEl-18">
          <mxGeometry relative="1" as="geometry" />
        </mxCell>
        <mxCell id="wwR4H8JDuJIurhsovBEl-23" style="edgeStyle=none;shape=link;rounded=0;orthogonalLoop=1;jettySize=auto;html=1;exitX=0.5;exitY=0;exitDx=0;exitDy=0;entryX=0.5;entryY=1;entryDx=0;entryDy=0;" edge="1" parent="1" source="wwR4H8JDuJIurhsovBEl-12" target="wwR4H8JDuJIurhsovBEl-15">
          <mxGeometry relative="1" as="geometry" />
        </mxCell>
        <mxCell id="wwR4H8JDuJIurhsovBEl-24" style="edgeStyle=none;shape=link;rounded=0;orthogonalLoop=1;jettySize=auto;html=1;exitX=0.5;exitY=0;exitDx=0;exitDy=0;entryX=0.5;entryY=1;entryDx=0;entryDy=0;" edge="1" parent="1" source="wwR4H8JDuJIurhsovBEl-12" target="wwR4H8JDuJIurhsovBEl-14">
          <mxGeometry relative="1" as="geometry" />
        </mxCell>
        <mxCell id="wwR4H8JDuJIurhsovBEl-25" style="edgeStyle=none;shape=link;rounded=0;orthogonalLoop=1;jettySize=auto;html=1;exitX=0;exitY=0.5;exitDx=0;exitDy=0;entryX=1;entryY=0.5;entryDx=0;entryDy=0;" edge="1" parent="1" source="wwR4H8JDuJIurhsovBEl-12" target="wwR4H8JDuJIurhsovBEl-13">
          <mxGeometry relative="1" as="geometry" />
        </mxCell>
        <mxCell id="wwR4H8JDuJIurhsovBEl-27" style="edgeStyle=none;shape=link;rounded=0;orthogonalLoop=1;jettySize=auto;html=1;exitX=0.5;exitY=1;exitDx=0;exitDy=0;" edge="1" parent="1" source="wwR4H8JDuJIurhsovBEl-12">
          <mxGeometry relative="1" as="geometry">
            <mxPoint x="459" y="360" as="targetPoint" />
          </mxGeometry>
        </mxCell>
        <mxCell id="wwR4H8JDuJIurhsovBEl-12" value="IP" style="rounded=1;whiteSpace=wrap;html=1;" vertex="1" parent="1">
          <mxGeometry x="414" y="220" width="90" height="40" as="geometry" />
        </mxCell>
        <mxCell id="wwR4H8JDuJIurhsovBEl-26" style="edgeStyle=none;shape=link;rounded=0;orthogonalLoop=1;jettySize=auto;html=1;exitX=0.5;exitY=0;exitDx=0;exitDy=0;entryX=0.5;entryY=1;entryDx=0;entryDy=0;" edge="1" parent="1" source="wwR4H8JDuJIurhsovBEl-13" target="wwR4H8JDuJIurhsovBEl-16">
          <mxGeometry relative="1" as="geometry" />
        </mxCell>
        <mxCell id="wwR4H8JDuJIurhsovBEl-13" value="ICMP" style="rounded=1;whiteSpace=wrap;html=1;" vertex="1" parent="1">
          <mxGeometry x="180" y="220" width="90" height="40" as="geometry" />
        </mxCell>
        <mxCell id="wwR4H8JDuJIurhsovBEl-20" style="rounded=0;orthogonalLoop=1;jettySize=auto;html=1;exitX=0.5;exitY=0;exitDx=0;exitDy=0;entryX=0.5;entryY=1;entryDx=0;entryDy=0;shape=link;" edge="1" parent="1" source="wwR4H8JDuJIurhsovBEl-14" target="wwR4H8JDuJIurhsovBEl-19">
          <mxGeometry relative="1" as="geometry" />
        </mxCell>
        <mxCell id="wwR4H8JDuJIurhsovBEl-14" value="UDP" style="rounded=1;whiteSpace=wrap;html=1;" vertex="1" parent="1">
          <mxGeometry x="470" y="140" width="90" height="40" as="geometry" />
        </mxCell>
        <mxCell id="wwR4H8JDuJIurhsovBEl-21" style="edgeStyle=none;shape=link;rounded=0;orthogonalLoop=1;jettySize=auto;html=1;exitX=0.5;exitY=0;exitDx=0;exitDy=0;entryX=0.5;entryY=1;entryDx=0;entryDy=0;" edge="1" parent="1" source="wwR4H8JDuJIurhsovBEl-15" target="wwR4H8JDuJIurhsovBEl-17">
          <mxGeometry relative="1" as="geometry" />
        </mxCell>
        <mxCell id="wwR4H8JDuJIurhsovBEl-15" value="TCP" style="rounded=1;whiteSpace=wrap;html=1;" vertex="1" parent="1">
          <mxGeometry x="360" y="140" width="90" height="40" as="geometry" />
        </mxCell>
        <mxCell id="wwR4H8JDuJIurhsovBEl-16" value="ping" style="rounded=1;whiteSpace=wrap;html=1;" vertex="1" parent="1">
          <mxGeometry x="180" y="60" width="90" height="40" as="geometry" />
        </mxCell>
        <mxCell id="wwR4H8JDuJIurhsovBEl-17" value="telnet" style="rounded=1;whiteSpace=wrap;html=1;" vertex="1" parent="1">
          <mxGeometry x="300" y="60" width="90" height="40" as="geometry" />
        </mxCell>
        <mxCell id="wwR4H8JDuJIurhsovBEl-18" value="OSPF" style="rounded=1;whiteSpace=wrap;html=1;" vertex="1" parent="1">
          <mxGeometry x="414" y="60" width="90" height="40" as="geometry" />
        </mxCell>
        <mxCell id="wwR4H8JDuJIurhsovBEl-19" value="DNS" style="rounded=1;whiteSpace=wrap;html=1;" vertex="1" parent="1">
          <mxGeometry x="530" y="60" width="90" height="40" as="geometry" />
        </mxCell>
      </root>
    </mxGraphModel>
  </diagram>
</mxfile>
